V-love_FullLove.ufo
<glyph name="exclam" format="2">
  <advance width="194"/>
  <unicode hex="0021"/>
  <outline>
    <contour>
      <point x="175" y="483" type="curve" smooth="yes"/>
      <point x="175" y="631"/>
      <point x="123" y="755"/>
      <point x="98" y="755" type="curve" smooth="yes"/>
      <point x="73" y="755"/>
      <point x="6" y="631"/>
      <point x="6" y="483" type="curve" smooth="yes"/>
      <point x="6" y="335"/>
      <point x="73" y="219"/>
      <point x="98" y="219" type="curve" smooth="yes"/>
      <point x="123" y="219"/>
      <point x="175" y="335"/>
    </contour>
    <contour>
      <point x="144" y="51" type="curve" smooth="yes"/>
      <point x="144" y="86"/>
      <point x="123" y="114"/>
      <point x="97" y="114" type="curve" smooth="yes"/>
      <point x="71" y="114"/>
      <point x="50" y="86"/>
      <point x="50" y="51" type="curve" smooth="yes"/>
      <point x="50" y="15"/>
      <point x="71" y="-13"/>
      <point x="97" y="-13" type="curve" smooth="yes"/>
      <point x="123" y="-13"/>
      <point x="144" y="15"/>
    </contour>
  </outline>
</glyph>
<glyph name="comma" format="2">
  <advance width="166"/>
  <unicode hex="002C"/>
  <outline>
    <contour>
      <point x="116" y="-2" type="curve" smooth="yes"/>
      <point x="116" y="31"/>
      <point x="101" y="57"/>
      <point x="82" y="57" type="curve" smooth="yes"/>
      <point x="63" y="57"/>
      <point x="50" y="34"/>
      <point x="50" y="1" type="curve" smooth="yes"/>
      <point x="50" y="-9"/>
      <point x="90" y="-21"/>
      <point x="93" y="-29" type="curve" smooth="yes"/>
      <point x="98" y="-48"/>
      <point x="71" y="-59"/>
      <point x="85" y="-59" type="curve" smooth="yes"/>
      <point x="104" y="-59"/>
      <point x="116" y="-35"/>
    </contour>
  </outline>
</glyph>
<glyph name="hyphen" format="2">
  <advance width="500"/>
  <unicode hex="002D"/>
  <outline>
    <contour>
      <point x="430" y="260" type="curve" smooth="yes"/>
      <point x="430" y="279"/>
      <point x="346" y="333"/>
      <point x="250" y="333" type="curve" smooth="yes"/>
      <point x="153" y="333"/>
      <point x="81" y="279"/>
      <point x="81" y="260" type="curve" smooth="yes"/>
      <point x="81" y="241"/>
      <point x="161" y="194"/>
      <point x="258" y="194" type="curve" smooth="yes"/>
      <point x="354" y="194"/>
      <point x="430" y="241"/>
    </contour>
  </outline>
</glyph>
<glyph name="period" format="2">
  <advance width="500"/>
  <unicode hex="002E"/>
  <outline>
    <contour>
      <point x="294" y="33" type="curve" smooth="yes"/>
      <point x="294" y="58"/>
      <point x="275" y="79"/>
      <point x="251" y="79" type="curve" smooth="yes"/>
      <point x="226" y="79"/>
      <point x="207" y="58"/>
      <point x="207" y="33" type="curve" smooth="yes"/>
      <point x="207" y="8"/>
      <point x="226" y="-13"/>
      <point x="251" y="-13" type="curve" smooth="yes"/>
      <point x="275" y="-13"/>
      <point x="294" y="8"/>
    </contour>
  </outline>
</glyph>
<glyph name="question" format="2">
  <advance width="500"/>
  <unicode hex="003F"/>
  <outline>
    <contour>
      <point x="307" y="14" type="curve" smooth="yes"/>
      <point x="307" y="36"/>
      <point x="290" y="55"/>
      <point x="269" y="55" type="curve" smooth="yes"/>
      <point x="247" y="55"/>
      <point x="230" y="36"/>
      <point x="230" y="14" type="curve" smooth="yes"/>
      <point x="230" y="-9"/>
      <point x="247" y="-28"/>
      <point x="269" y="-28" type="curve" smooth="yes"/>
      <point x="290" y="-28"/>
      <point x="307" y="-9"/>
    </contour>
    <contour>
      <point x="283" y="134" type="curve" smooth="yes"/>
      <point x="306" y="134"/>
      <point x="296" y="388"/>
      <point x="307" y="423" type="curve" smooth="yes"/>
      <point x="315" y="449"/>
      <point x="403" y="448"/>
      <point x="411" y="527" type="curve" smooth="yes"/>
      <point x="415" y="565"/>
      <point x="363" y="741"/>
      <point x="307" y="757" type="curve" smooth="yes"/>
      <point x="274" y="766"/>
      <point x="133" y="703"/>
      <point x="153" y="658" type="curve" smooth="yes"/>
      <point x="163" y="636"/>
      <point x="239" y="631"/>
      <point x="264" y="623" type="curve" smooth="yes"/>
      <point x="285" y="616"/>
      <point x="305" y="530"/>
      <point x="294" y="508" type="curve" smooth="yes"/>
      <point x="281" y="481"/>
      <point x="213" y="477"/>
      <point x="204" y="454" type="curve" smooth="yes"/>
      <point x="137" y="280"/>
      <point x="232" y="134"/>
    </contour>
  </outline>
</glyph>
<glyph name="A" format="2">
  <advance width="744"/>
  <unicode hex="0041"/>
  <outline>
    <contour>
      <point x="694" y="318" type="curve" smooth="yes"/>
      <point x="694" y="559"/>
      <point x="550" y="755"/>
      <point x="372" y="755" type="curve" smooth="yes"/>
      <point x="194" y="755"/>
      <point x="50" y="559"/>
      <point x="50" y="318" type="curve" smooth="yes"/>
      <point x="50" y="213"/>
      <point x="77" y="117"/>
      <point x="122" y="42" type="curve" smooth="yes"/>
      <point x="181" y="-57"/>
      <point x="267" y="214"/>
      <point x="368" y="214" type="curve" smooth="yes"/>
      <point x="468" y="214"/>
      <point x="562" y="-57"/>
      <point x="621" y="41" type="curve" smooth="yes"/>
      <point x="667" y="116"/>
      <point x="694" y="212"/>
    </contour>
    <contour>
      <point x="536" y="512" type="curve" smooth="yes"/>
      <point x="536" y="442"/>
      <point x="463" y="384"/>
      <point x="373" y="384" type="curve"/>
      <point x="284" y="384"/>
      <point x="211" y="442"/>
      <point x="211" y="512" type="curve" smooth="yes"/>
      <point x="211" y="581"/>
      <point x="284" y="640"/>
      <point x="373" y="640" type="curve"/>
      <point x="463" y="640"/>
      <point x="536" y="581"/>
    </contour>
  </outline>
</glyph>
<glyph name="B" format="2">
  <advance width="538"/>
  <unicode hex="0042"/>
  <outline>
    <contour>
      <point x="362" y="373" type="curve" smooth="yes"/>
      <point x="362" y="441"/>
      <point x="496" y="477"/>
      <point x="475" y="532" type="curve" smooth="yes"/>
      <point x="429" y="646"/>
      <point x="343" y="723"/>
      <point x="245" y="723" type="curve" smooth="yes"/>
      <point x="98" y="723"/>
      <point x="50" y="545"/>
      <point x="50" y="337" type="curve" smooth="yes"/>
      <point x="50" y="129"/>
      <point x="98" y="-31"/>
      <point x="245" y="-31" type="curve" smooth="yes"/>
      <point x="354" y="-31"/>
      <point x="448" y="64"/>
      <point x="488" y="199" type="curve" smooth="yes"/>
      <point x="502" y="244"/>
      <point x="362" y="321"/>
    </contour>
    <contour>
      <point x="331" y="533" type="curve" smooth="yes"/>
      <point x="331" y="507"/>
      <point x="286" y="424"/>
      <point x="241" y="424" type="curve"/>
      <point x="195" y="424"/>
      <point x="165" y="507"/>
      <point x="165" y="533" type="curve" smooth="yes"/>
      <point x="165" y="560"/>
      <point x="202" y="580"/>
      <point x="248" y="580" type="curve" smooth="yes"/>
      <point x="294" y="580"/>
      <point x="331" y="560"/>
    </contour>
    <contour>
      <point x="351" y="154" type="curve" smooth="yes"/>
      <point x="351" y="119"/>
      <point x="303" y="91"/>
      <point x="246" y="91" type="curve" smooth="yes"/>
      <point x="187" y="91"/>
      <point x="163" y="122"/>
      <point x="163" y="156" type="curve" smooth="yes"/>
      <point x="163" y="191"/>
      <point x="193" y="277"/>
      <point x="251" y="277" type="curve" smooth="yes"/>
      <point x="309" y="277"/>
      <point x="351" y="190"/>
    </contour>
  </outline>
</glyph>
<glyph name="C" format="2">
  <advance width="500"/>
  <unicode hex="0043"/>
  <outline>
    <contour>
      <point x="251" y="396" type="curve" smooth="yes"/>
      <point x="251" y="610"/>
      <point x="524" y="758"/>
      <point x="414" y="758" type="curve" smooth="yes"/>
      <point x="303" y="758"/>
      <point x="54" y="595"/>
      <point x="54" y="381" type="curve" smooth="yes"/>
      <point x="54" y="167"/>
      <point x="364" y="20"/>
      <point x="475" y="20" type="curve" smooth="yes"/>
      <point x="585" y="20"/>
      <point x="251" y="182"/>
    </contour>
  </outline>
</glyph>
<glyph name="D" format="2">
  <advance width="630"/>
  <unicode hex="0044"/>
  <outline>
    <contour>
      <point x="580.116" y="364" type="curve" smooth="yes"/>
      <point x="580.116" y="569"/>
      <point x="268.116" y="758"/>
      <point x="143.116" y="758" type="curve" smooth="yes"/>
      <point x="18.1163" y="758"/>
      <point x="55.1163" y="593"/>
      <point x="55.1163" y="388" type="curve" smooth="yes"/>
      <point x="55.1163" y="182"/>
      <point x="27.1163" y="13"/>
      <point x="152.116" y="13" type="curve" smooth="yes"/>
      <point x="277.116" y="13"/>
      <point x="580.116" y="158"/>
    </contour>
    <contour>
      <point x="401" y="360" type="curve" smooth="yes"/>
      <point x="401" y="284.889"/>
      <point x="329.366" y="224"/>
      <point x="241" y="224" type="curve" smooth="yes"/>
      <point x="199.026" y="224"/>
      <point x="165" y="288.471"/>
      <point x="165" y="368" type="curve" smooth="yes"/>
      <point x="165" y="458.575"/>
      <point x="205.294" y="532"/>
      <point x="255" y="532" type="curve" smooth="yes"/>
      <point x="335.634" y="532"/>
      <point x="401" y="454.993"/>
    </contour>
  </outline>
</glyph>
<glyph name="E" format="2">
  <advance width="500"/>
  <unicode hex="0045"/>
  <outline>
    <contour>
      <point x="406" y="372" type="curve" smooth="yes"/>
      <point x="406" y="437"/>
      <point x="238" y="390"/>
      <point x="217" y="443" type="curve" smooth="yes"/>
      <point x="209" y="463"/>
      <point x="207" y="591"/>
      <point x="263" y="628" type="curve" smooth="yes"/>
      <point x="311" y="660"/>
      <point x="363" y="660"/>
      <point x="354" y="673" type="curve" smooth="yes"/>
      <point x="314" y="732"/>
      <point x="233" y="743"/>
      <point x="205" y="743" type="curve" smooth="yes"/>
      <point x="143" y="743"/>
      <point x="93" y="577"/>
      <point x="93" y="372" type="curve" smooth="yes"/>
      <point x="93" y="166"/>
      <point x="143" y="0"/>
      <point x="205" y="0" type="curve" smooth="yes"/>
      <point x="240" y="0"/>
      <point x="371" y="-44"/>
      <point x="417" y="41" type="curve" smooth="yes"/>
      <point x="424" y="55"/>
      <point x="367" y="25"/>
      <point x="302" y="99" type="curve" smooth="yes"/>
      <point x="237" y="172"/>
      <point x="247" y="275"/>
      <point x="252" y="291" type="curve" smooth="yes"/>
      <point x="266" y="335"/>
      <point x="406" y="322"/>
    </contour>
  </outline>
</glyph>
<glyph name="F" format="2">
  <advance width="500"/>
  <unicode hex="0046"/>
  <outline>
    <contour>
      <point x="399" y="448" type="curve" smooth="yes"/>
      <point x="329" y="532"/>
      <point x="227" y="518"/>
      <point x="219" y="578" type="curve" smooth="yes"/>
      <point x="214" y="611"/>
      <point x="457" y="650"/>
      <point x="450" y="674" type="curve" smooth="yes"/>
      <point x="437" y="722"/>
      <point x="172" y="736"/>
      <point x="154" y="736" type="curve" smooth="yes"/>
      <point x="111" y="736"/>
      <point x="75" y="570"/>
      <point x="75" y="366" type="curve" smooth="yes"/>
      <point x="75" y="161"/>
      <point x="111" y="-4"/>
      <point x="154" y="-4" type="curve" smooth="yes"/>
      <point x="191" y="-4"/>
      <point x="193" y="223"/>
      <point x="201" y="389" type="curve" smooth="yes"/>
      <point x="202" y="415"/>
      <point x="417" y="426"/>
    </contour>
  </outline>
</glyph>
<glyph name="G" format="2">
  <advance width="500"/>
  <unicode hex="0047"/>
  <outline>
    <contour>
      <point x="422" y="381" type="curve" smooth="yes"/>
      <point x="403" y="385"/>
      <point x="302" y="363"/>
      <point x="318" y="314" type="curve" smooth="yes"/>
      <point x="363" y="174"/>
      <point x="293" y="181"/>
      <point x="268" y="179" type="curve" smooth="yes"/>
      <point x="243" y="177"/>
      <point x="210" y="198"/>
      <point x="184" y="293" type="curve" smooth="yes"/>
      <point x="163" y="366"/>
      <point x="235" y="584"/>
      <point x="310" y="650" type="curve" smooth="yes"/>
      <point x="372" y="705"/>
      <point x="374" y="733"/>
      <point x="249" y="750" type="curve" smooth="yes"/>
      <point x="191" y="758"/>
      <point x="62" y="589"/>
      <point x="62" y="383" type="curve" smooth="yes"/>
      <point x="62" y="177"/>
      <point x="257" y="8"/>
      <point x="316" y="8" type="curve" smooth="yes"/>
      <point x="375" y="8"/>
      <point x="484" y="369"/>
    </contour>
  </outline>
</glyph>
<glyph name="H" format="2">
  <advance width="500"/>
  <unicode hex="0048"/>
  <outline>
    <contour>
      <point x="450" y="383" type="curve" smooth="yes"/>
      <point x="450" y="464"/>
      <point x="449" y="678"/>
      <point x="417" y="740" type="curve" smooth="yes"/>
      <point x="395" y="784"/>
      <point x="366" y="765"/>
      <point x="358" y="748" type="curve" smooth="yes"/>
      <point x="339" y="709"/>
      <point x="345" y="523"/>
      <point x="338" y="507" type="curve" smooth="yes"/>
      <point x="328" y="483"/>
      <point x="214" y="469"/>
      <point x="205" y="507" type="curve" smooth="yes"/>
      <point x="181" y="600"/>
      <point x="187" y="689"/>
      <point x="162" y="744" type="curve" smooth="yes"/>
      <point x="155" y="760"/>
      <point x="114" y="761"/>
      <point x="106" y="744" type="curve" smooth="yes"/>
      <point x="71" y="679"/>
      <point x="61" y="479"/>
      <point x="61" y="385" type="curve" smooth="yes"/>
      <point x="61" y="309"/>
      <point x="81" y="70"/>
      <point x="107" y="11" type="curve" smooth="yes"/>
      <point x="140" y="-63"/>
      <point x="179" y="143"/>
      <point x="214" y="267" type="curve" smooth="yes"/>
      <point x="227" y="313"/>
      <point x="256" y="283"/>
      <point x="301" y="281" type="curve" smooth="yes"/>
      <point x="333" y="279"/>
      <point x="352" y="-83"/>
      <point x="399" y="11" type="curve" smooth="yes"/>
      <point x="430" y="72"/>
      <point x="450" y="301"/>
    </contour>
  </outline>
</glyph>
<glyph name="I" format="2">
  <advance width="289"/>
  <unicode hex="0049"/>
  <outline>
    <contour>
      <point x="238" y="371" type="curve" smooth="yes"/>
      <point x="238" y="443"/>
      <point x="185" y="594"/>
      <point x="192" y="671" type="curve" smooth="yes"/>
      <point x="194" y="686"/>
      <point x="238" y="676"/>
      <point x="237" y="687" type="curve" smooth="yes"/>
      <point x="236" y="702"/>
      <point x="243" y="723"/>
      <point x="235" y="733" type="curve" smooth="yes"/>
      <point x="225" y="745"/>
      <point x="159" y="745"/>
      <point x="147" y="745" type="curve" smooth="yes"/>
      <point x="135" y="745"/>
      <point x="55" y="744"/>
      <point x="52" y="738" type="curve" smooth="yes"/>
      <point x="46" y="726"/>
      <point x="53" y="714"/>
      <point x="52" y="698" type="curve" smooth="yes"/>
      <point x="51" y="688"/>
      <point x="99" y="684"/>
      <point x="101" y="669" type="curve" smooth="yes"/>
      <point x="109" y="591"/>
      <point x="55" y="450"/>
      <point x="55" y="374" type="curve" smooth="yes"/>
      <point x="55" y="294"/>
      <point x="57" y="206"/>
      <point x="75" y="149" type="curve" smooth="yes"/>
      <point x="81" y="130"/>
      <point x="121" y="71"/>
      <point x="118" y="50" type="curve" smooth="yes"/>
      <point x="114" y="24"/>
      <point x="60" y="47"/>
      <point x="57" y="40" type="curve" smooth="yes"/>
      <point x="52" y="29"/>
      <point x="57" y="4"/>
      <point x="68" y="1" type="curve" smooth="yes"/>
      <point x="74" y="-1"/>
      <point x="220" y="-7"/>
      <point x="231" y="1" type="curve" smooth="yes"/>
      <point x="240" y="8"/>
      <point x="246" y="29"/>
      <point x="240" y="40" type="curve" smooth="yes"/>
      <point x="231" y="56"/>
      <point x="168" y="49"/>
      <point x="167" y="52" type="curve" smooth="yes"/>
      <point x="159" y="71"/>
      <point x="227" y="140"/>
      <point x="228" y="153" type="curve" smooth="yes"/>
      <point x="234" y="214"/>
      <point x="238" y="289"/>
    </contour>
  </outline>
</glyph>
<glyph name="J" format="2">
  <advance width="500"/>
  <unicode hex="004A"/>
  <outline>
    <contour>
      <point x="417" y="372" type="curve" smooth="yes"/>
      <point x="417" y="578"/>
      <point x="391" y="745"/>
      <point x="359" y="745" type="curve" smooth="yes"/>
      <point x="326" y="745"/>
      <point x="245" y="636"/>
      <point x="245" y="430" type="curve" smooth="yes"/>
      <point x="245" y="382"/>
      <point x="284" y="238"/>
      <point x="287" y="197" type="curve" smooth="yes"/>
      <point x="289" y="153"/>
      <point x="69" y="283"/>
      <point x="74" y="249" type="curve" smooth="yes"/>
      <point x="85" y="173"/>
      <point x="321" y="-4"/>
      <point x="338" y="-4" type="curve" smooth="yes"/>
      <point x="370" y="-4"/>
      <point x="417" y="165"/>
    </contour>
  </outline>
</glyph>
<glyph name="K" format="2">
  <advance width="500"/>
  <unicode hex="004B"/>
  <outline>
    <contour>
      <point x="409" y="573" type="curve" smooth="yes"/>
      <point x="409" y="605"/>
      <point x="406.775" y="596.903"/>
      <point x="405" y="627" type="curve" smooth="yes"/>
      <point x="403.402" y="654.109"/>
      <point x="202.165" y="515.859"/>
      <point x="206" y="541" type="curve" smooth="yes"/>
      <point x="223.037" y="652.683"/>
      <point x="222.185" y="743"/>
      <point x="183" y="743" type="curve" smooth="yes"/>
      <point x="117" y="743"/>
      <point x="63" y="577"/>
      <point x="63" y="373" type="curve" smooth="yes"/>
      <point x="63" y="168"/>
      <point x="96" y="12"/>
      <point x="162" y="12" type="curve"/>
      <point x="162" y="12"/>
      <point x="166.086" y="289.621"/>
      <point x="170" y="289" type="curve" smooth="yes"/>
      <point x="197.368" y="284.655"/>
      <point x="343.651" y="20.8545"/>
      <point x="365" y="4" type="curve" smooth="yes"/>
      <point x="384" y="-11"/>
      <point x="440.165" y="-4.06282"/>
      <point x="439" y="17" type="curve" smooth="yes"/>
      <point x="434.387" y="100.384"/>
      <point x="238.467" y="388.807"/>
      <point x="240" y="409" type="curve" smooth="yes"/>
      <point x="243.728" y="458.088"/>
      <point x="409" y="516.102"/>
    </contour>
  </outline>
</glyph>
<glyph name="L" format="2">
  <advance width="600"/>
  <unicode hex="004C"/>
  <outline>
    <contour>
      <point x="204" y="243" type="curve" smooth="yes"/>
      <point x="204" y="451"/>
      <point x="219" y="746"/>
      <point x="117" y="746" type="curve" smooth="yes"/>
      <point x="15" y="746"/>
      <point x="72" y="565"/>
      <point x="72" y="357" type="curve" smooth="yes"/>
      <point x="72" y="149"/>
      <point x="65" y="7"/>
      <point x="167" y="7" type="curve" smooth="yes"/>
      <point x="230" y="7"/>
      <point x="418" y="-53"/>
      <point x="519" y="40" type="curve" smooth="yes"/>
      <point x="544" y="64"/>
      <point x="560" y="109"/>
      <point x="528" y="101" type="curve" smooth="yes"/>
      <point x="432" y="76"/>
      <point x="204" y="196"/>
    </contour>
  </outline>
</glyph>
<glyph name="M" format="2">
  <advance width="1000"/>
  <unicode hex="004D"/>
  <outline>
    <contour>
      <point x="937" y="40" type="curve" smooth="yes"/>
      <point x="937" y="135"/>
      <point x="984" y="723"/>
      <point x="880" y="752" type="curve" smooth="yes"/>
      <point x="821" y="768"/>
      <point x="825" y="733"/>
      <point x="789" y="686" type="curve" smooth="yes"/>
      <point x="751" y="636"/>
      <point x="521" y="320"/>
      <point x="476" y="320" type="curve" smooth="yes"/>
      <point x="419" y="320"/>
      <point x="284" y="655"/>
      <point x="235" y="695" type="curve" smooth="yes"/>
      <point x="212" y="714"/>
      <point x="159" y="760"/>
      <point x="135" y="745" type="curve" smooth="yes"/>
      <point x="36" y="685"/>
      <point x="57" y="177"/>
      <point x="57" y="68" type="curve" smooth="yes"/>
      <point x="57" y="-5"/>
      <point x="122" y="-15"/>
      <point x="184" y="22" type="curve" smooth="yes"/>
      <point x="245" y="58"/>
      <point x="171" y="527"/>
      <point x="211" y="506" type="curve" smooth="yes"/>
      <point x="275" y="470"/>
      <point x="401" y="44"/>
      <point x="485" y="44" type="curve" smooth="yes"/>
      <point x="555" y="44"/>
      <point x="730" y="477"/>
      <point x="787" y="502" type="curve" smooth="yes"/>
      <point x="841" y="527"/>
      <point x="783" y="84"/>
      <point x="843" y="20" type="curve" smooth="yes"/>
      <point x="892" y="-32"/>
      <point x="937" y="-32"/>
    </contour>
  </outline>
</glyph>
<glyph name="N" format="2">
  <advance width="700"/>
  <unicode hex="004E"/>
  <outline>
    <contour>
      <point x="582" y="23" type="curve" smooth="yes"/>
      <point x="615" y="97"/>
      <point x="610" y="754"/>
      <point x="593" y="784" type="curve" smooth="yes"/>
      <point x="553" y="852"/>
      <point x="505" y="839"/>
      <point x="495" y="819" type="curve" smooth="yes"/>
      <point x="473" y="773"/>
      <point x="576" y="153"/>
      <point x="504" y="153" type="curve" smooth="yes"/>
      <point x="449" y="153"/>
      <point x="227" y="728"/>
      <point x="152" y="827" type="curve" smooth="yes"/>
      <point x="104" y="891"/>
      <point x="61" y="842"/>
      <point x="50" y="803" type="curve" smooth="yes"/>
      <point x="16" y="687"/>
      <point x="45" y="77"/>
      <point x="92" y="-4" type="curve" smooth="yes"/>
      <point x="104" y="-25"/>
      <point x="161" y="-4"/>
      <point x="169" y="45" type="curve" smooth="yes"/>
      <point x="180" y="115"/>
      <point x="108" y="557"/>
      <point x="155" y="557" type="curve" smooth="yes"/>
      <point x="219" y="557"/>
      <point x="391" y="113"/>
      <point x="469" y="13" type="curve" smooth="yes"/>
      <point x="477" y="3"/>
      <point x="553" y="-42"/>
    </contour>
  </outline>
</glyph>
<glyph name="O" format="2">
  <advance width="800"/>
  <unicode hex="004F"/>
  <outline>
    <contour>
      <point x="700" y="366.5" type="curve" smooth="yes"/>
      <point x="700" y="573.883"/>
      <point x="574.192" y="742"/>
      <point x="419" y="742" type="curve" smooth="yes"/>
      <point x="263.808" y="742"/>
      <point x="138" y="573.883"/>
      <point x="138" y="366.5" type="curve" smooth="yes"/>
      <point x="138" y="159.117"/>
      <point x="263.808" y="-9"/>
      <point x="419" y="-9" type="curve" smooth="yes"/>
      <point x="574.192" y="-9"/>
      <point x="700" y="159.117"/>
    </contour>
    <contour>
      <point x="581" y="351.5" type="curve" smooth="yes"/>
      <point x="581" y="239.11"/>
      <point x="515.634" y="148"/>
      <point x="435" y="148" type="curve" smooth="yes"/>
      <point x="354.366" y="148"/>
      <point x="289" y="239.11"/>
      <point x="289" y="351.5" type="curve" smooth="yes"/>
      <point x="289" y="463.89"/>
      <point x="354.366" y="555"/>
      <point x="435" y="555" type="curve" smooth="yes"/>
      <point x="515.634" y="555"/>
      <point x="581" y="463.89"/>
    </contour>
  </outline>
</glyph>
<glyph name="P" format="2">
  <advance width="600"/>
  <unicode hex="0050"/>
  <outline>
    <contour>
      <point x="530" y="543" type="curve" smooth="yes"/>
      <point x="529" y="695"/>
      <point x="334" y="765"/>
      <point x="218" y="765" type="curve" smooth="yes"/>
      <point x="103" y="765"/>
      <point x="95" y="597"/>
      <point x="95" y="389" type="curve" smooth="yes"/>
      <point x="95" y="180"/>
      <point x="153" y="9"/>
      <point x="268" y="9" type="curve" smooth="yes"/>
      <point x="358" y="9"/>
      <point x="251" y="185"/>
      <point x="311" y="331" type="curve" smooth="yes"/>
      <point x="328" y="372"/>
      <point x="532" y="314"/>
    </contour>
    <contour>
      <point x="440" y="542" type="curve" smooth="yes"/>
      <point x="440" y="477"/>
      <point x="382" y="424"/>
      <point x="310" y="424" type="curve" smooth="yes"/>
      <point x="238" y="424"/>
      <point x="180" y="477"/>
      <point x="180" y="542" type="curve" smooth="yes"/>
      <point x="180" y="607"/>
      <point x="238" y="660"/>
      <point x="310" y="660" type="curve" smooth="yes"/>
      <point x="382" y="660"/>
      <point x="440" y="607"/>
    </contour>
  </outline>
</glyph>
<glyph name="Q" format="2">
  <advance width="800"/>
  <unicode hex="0051"/>
  <outline>
    <contour>
      <point x="700" y="366.5" type="curve" smooth="yes"/>
      <point x="700" y="573.883"/>
      <point x="574.192" y="742"/>
      <point x="419" y="742" type="curve" smooth="yes"/>
      <point x="263.808" y="742"/>
      <point x="138" y="573.883"/>
      <point x="138" y="366.5" type="curve" smooth="yes"/>
      <point x="138" y="159.117"/>
      <point x="263.808" y="-9"/>
      <point x="419" y="-9" type="curve" smooth="yes"/>
      <point x="462" y="-9"/>
      <point x="541" y="39"/>
      <point x="575" y="6" type="curve" smooth="yes"/>
      <point x="711" y="-129"/>
      <point x="718" y="-42"/>
      <point x="651" y="75" type="curve" smooth="yes"/>
      <point x="622" y="125"/>
      <point x="700" y="258"/>
    </contour>
    <contour>
      <point x="581" y="351.5" type="curve" smooth="yes"/>
      <point x="581" y="294"/>
      <point x="570" y="167"/>
      <point x="533" y="203" type="curve" smooth="yes"/>
      <point x="504" y="232"/>
      <point x="438" y="160"/>
      <point x="463" y="140" type="curve" smooth="yes"/>
      <point x="478" y="128"/>
      <point x="423" y="148"/>
      <point x="404" y="148" type="curve" smooth="yes"/>
      <point x="324" y="148"/>
      <point x="289" y="239.11"/>
      <point x="289" y="351.5" type="curve" smooth="yes"/>
      <point x="289" y="463.89"/>
      <point x="354.366" y="555"/>
      <point x="435" y="555" type="curve" smooth="yes"/>
      <point x="515.634" y="555"/>
      <point x="581" y="463.89"/>
    </contour>
  </outline>
</glyph>
<glyph name="R" format="2">
  <advance width="600"/>
  <unicode hex="0052"/>
  <outline>
    <contour>
      <point x="281" y="370" type="curve" smooth="yes"/>
      <point x="281" y="417"/>
      <point x="404" y="358"/>
      <point x="481" y="383" type="curve" smooth="yes"/>
      <point x="576" y="415"/>
      <point x="545" y="555"/>
      <point x="536" y="662" type="curve" smooth="yes"/>
      <point x="524" y="801"/>
      <point x="268" y="771"/>
      <point x="171" y="771" type="curve" smooth="yes"/>
      <point x="-24" y="771"/>
      <point x="55" y="602"/>
      <point x="55" y="393" type="curve" smooth="yes"/>
      <point x="55" y="185"/>
      <point x="-16" y="-24"/>
      <point x="179" y="-24" type="curve" smooth="yes"/>
      <point x="223" y="-24"/>
      <point x="163" y="175"/>
      <point x="232" y="176" type="curve" smooth="yes"/>
      <point x="309" y="176"/>
      <point x="460" y="-57"/>
      <point x="522" y="-19" type="curve" smooth="yes"/>
      <point x="651" y="60"/>
      <point x="281" y="261"/>
    </contour>
    <contour>
      <point x="440" y="550" type="curve" smooth="yes"/>
      <point x="440" y="505"/>
      <point x="382" y="468"/>
      <point x="311" y="468" type="curve" smooth="yes"/>
      <point x="239" y="468"/>
      <point x="181" y="505"/>
      <point x="181" y="550" type="curve" smooth="yes"/>
      <point x="181" y="594"/>
      <point x="239" y="631"/>
      <point x="311" y="631" type="curve" smooth="yes"/>
      <point x="382" y="631"/>
      <point x="440" y="594"/>
    </contour>
  </outline>
</glyph>
<glyph name="S" format="2">
  <advance width="600"/>
  <unicode hex="0053"/>
  <outline>
    <contour>
      <point x="593" y="187" type="curve" smooth="yes"/>
      <point x="576" y="301"/>
      <point x="369" y="454"/>
      <point x="309" y="572" type="curve" smooth="yes"/>
      <point x="257" y="672"/>
      <point x="506" y="754"/>
      <point x="479" y="754" type="curve" smooth="yes"/>
      <point x="422" y="754"/>
      <point x="92" y="782"/>
      <point x="92" y="570" type="curve" smooth="yes"/>
      <point x="92" y="461"/>
      <point x="360" y="338"/>
      <point x="404" y="219" type="curve" smooth="yes"/>
      <point x="453" y="85"/>
      <point x="88" y="5"/>
      <point x="116" y="5" type="curve" smooth="yes"/>
      <point x="174" y="5"/>
      <point x="619" y="20"/>
    </contour>
  </outline>
</glyph>
<glyph name="T" format="2">
  <advance width="834"/>
  <unicode hex="0054"/>
  <outline>
    <contour>
      <point x="490" y="609" type="curve" smooth="yes"/>
      <point x="490" y="667"/>
      <point x="768.977" y="588"/>
      <point x="792.092" y="637" type="curve" smooth="yes"/>
      <point x="811.977" y="678"/>
      <point x="807.977" y="725"/>
      <point x="786.092" y="754" type="curve" smooth="yes"/>
      <point x="738.977" y="817"/>
      <point x="460.092" y="765"/>
      <point x="423.592" y="765" type="curve" smooth="yes"/>
      <point x="388.092" y="765"/>
      <point x="106.977" y="801"/>
      <point x="57.0921" y="752" type="curve" smooth="yes"/>
      <point x="29.9768" y="725"/>
      <point x="16.9768" y="685"/>
      <point x="48.0921" y="648" type="curve" smooth="yes"/>
      <point x="83.9768" y="606"/>
      <point x="344" y="661"/>
      <point x="349" y="604" type="curve" smooth="yes"/>
      <point x="369" y="384"/>
      <point x="313" y="-17"/>
      <point x="412" y="-18" type="curve" smooth="yes"/>
      <point x="530" y="-19"/>
      <point x="490" y="392"/>
    </contour>
  </outline>
</glyph>
<glyph name="U" format="2">
  <advance width="600"/>
  <unicode hex="0055"/>
  <outline>
    <contour>
      <point x="567" y="159" type="curve" smooth="yes"/>
      <point x="563" y="226"/>
      <point x="570" y="694"/>
      <point x="555" y="750" type="curve" smooth="yes"/>
      <point x="543" y="794"/>
      <point x="432" y="784"/>
      <point x="404" y="767" type="curve" smooth="yes"/>
      <point x="359" y="740"/>
      <point x="413" y="179"/>
      <point x="387" y="153" type="curve" smooth="yes"/>
      <point x="361" y="127"/>
      <point x="273" y="80"/>
      <point x="250" y="167" type="curve" smooth="yes"/>
      <point x="200" y="357"/>
      <point x="279" y="715"/>
      <point x="255" y="753" type="curve" smooth="yes"/>
      <point x="236" y="783"/>
      <point x="65" y="792"/>
      <point x="54" y="747" type="curve" smooth="yes"/>
      <point x="41" y="695"/>
      <point x="67" y="222"/>
      <point x="67" y="159" type="curve" smooth="yes"/>
      <point x="67" y="-46"/>
      <point x="290" y="6"/>
      <point x="385" y="6" type="curve" smooth="yes"/>
      <point x="480" y="6"/>
      <point x="574" y="6"/>
    </contour>
  </outline>
</glyph>
<glyph name="V" format="2">
  <advance width="769"/>
  <unicode hex="0056"/>
  <outline>
    <contour>
      <point x="554.476" y="373.5" type="curve" smooth="yes"/>
      <point x="581" y="437"/>
      <point x="733.476" y="694"/>
      <point x="718.476" y="750" type="curve" smooth="yes"/>
      <point x="706.476" y="794"/>
      <point x="552" y="778"/>
      <point x="519" y="763" type="curve" smooth="yes"/>
      <point x="440" y="726"/>
      <point x="417" y="299"/>
      <point x="380" y="299" type="curve" smooth="yes"/>
      <point x="339" y="299"/>
      <point x="272" y="712"/>
      <point x="229" y="751" type="curve" smooth="yes"/>
      <point x="202" y="775"/>
      <point x="62.4757" y="788"/>
      <point x="51.4757" y="743" type="curve" smooth="yes"/>
      <point x="38.4757" y="691"/>
      <point x="114.476" y="456"/>
      <point x="157.476" y="365" type="curve" smooth="yes"/>
      <point x="244.476" y="179"/>
      <point x="262.476" y="-2"/>
      <point x="357.476" y="-2" type="curve" smooth="yes"/>
      <point x="452.476" y="-2"/>
      <point x="531" y="318"/>
    </contour>
  </outline>
</glyph>
<glyph name="W" format="2">
  <advance width="1200"/>
  <unicode hex="0057"/>
  <outline>
    <contour>
      <point x="1152" y="761" type="curve" smooth="yes"/>
      <point x="1122" y="804"/>
      <point x="1074" y="786"/>
      <point x="1004" y="747" type="curve" smooth="yes"/>
      <point x="932" y="707"/>
      <point x="927" y="191"/>
      <point x="888" y="201" type="curve" smooth="yes"/>
      <point x="809" y="221"/>
      <point x="803" y="733"/>
      <point x="711" y="733" type="curve" smooth="yes"/>
      <point x="661" y="733"/>
      <point x="613" y="730"/>
      <point x="567" y="724" type="curve" smooth="yes"/>
      <point x="509" y="716"/>
      <point x="446" y="196"/>
      <point x="395" y="180" type="curve" smooth="yes"/>
      <point x="341" y="164"/>
      <point x="269" y="718"/>
      <point x="229" y="768" type="curve" smooth="yes"/>
      <point x="202" y="801"/>
      <point x="74" y="771"/>
      <point x="61" y="735" type="curve" smooth="yes"/>
      <point x="38" y="672"/>
      <point x="220" y="102"/>
      <point x="262" y="46" type="curve" smooth="yes"/>
      <point x="321" y="-33"/>
      <point x="406" y="-27"/>
      <point x="482" y="15" type="curve" smooth="yes"/>
      <point x="586" y="72"/>
      <point x="566" y="422"/>
      <point x="663" y="422" type="curve" smooth="yes"/>
      <point x="744" y="422"/>
      <point x="713" y="31"/>
      <point x="788" y="8" type="curve" smooth="yes"/>
      <point x="853" y="-12"/>
      <point x="904" y="-15"/>
      <point x="961" y="2" type="curve" smooth="yes"/>
      <point x="1067" y="34"/>
      <point x="1219" y="664"/>
    </contour>
  </outline>
</glyph>
<glyph name="X" format="2">
  <advance width="750"/>
  <unicode hex="0058"/>
  <outline>
    <contour>
      <point x="483" y="402" type="curve" smooth="yes"/>
      <point x="483" y="533"/>
      <point x="737.414" y="699"/>
      <point x="638.414" y="769" type="curve" smooth="yes"/>
      <point x="572.414" y="817"/>
      <point x="442" y="570"/>
      <point x="359" y="570" type="curve" smooth="yes"/>
      <point x="272" y="570"/>
      <point x="172.414" y="824"/>
      <point x="108.414" y="771" type="curve" smooth="yes"/>
      <point x="21.4142" y="698"/>
      <point x="232" y="530"/>
      <point x="232" y="403" type="curve" smooth="yes"/>
      <point x="232" y="288"/>
      <point x="-11.5858" y="70"/>
      <point x="62.4142" y="-3" type="curve" smooth="yes"/>
      <point x="129.414" y="-68"/>
      <point x="260" y="218"/>
      <point x="358" y="218" type="curve" smooth="yes"/>
      <point x="446" y="218"/>
      <point x="616.414" y="-66"/>
      <point x="685.414" y="-11" type="curve" smooth="yes"/>
      <point x="777.414" y="64"/>
      <point x="483" y="277"/>
    </contour>
  </outline>
</glyph>
<glyph name="Y" format="2">
  <advance width="600"/>
  <unicode hex="0059"/>
  <outline>
    <contour>
      <point x="397" y="330" type="curve" smooth="yes"/>
      <point x="397" y="447"/>
      <point x="588.666" y="706"/>
      <point x="515.666" y="758" type="curve" smooth="yes"/>
      <point x="456.666" y="800"/>
      <point x="344" y="577"/>
      <point x="298" y="577" type="curve" smooth="yes"/>
      <point x="252" y="577"/>
      <point x="85.666" y="816"/>
      <point x="53.666" y="751" type="curve" smooth="yes"/>
      <point x="17.666" y="678"/>
      <point x="214" y="457"/>
      <point x="214" y="339" type="curve" smooth="yes"/>
      <point x="214" y="117"/>
      <point x="204.666" y="0"/>
      <point x="302.666" y="0" type="curve" smooth="yes"/>
      <point x="400.666" y="0"/>
      <point x="397" y="108"/>
    </contour>
  </outline>
</glyph>
<glyph name="Z" format="2">
  <advance width="758"/>
  <unicode hex="005A"/>
  <outline>
    <contour>
      <point x="699.995" y="58" type="curve" smooth="yes"/>
      <point x="677" y="195"/>
      <point x="299" y="41"/>
      <point x="315" y="170" type="curve" smooth="yes"/>
      <point x="337" y="356"/>
      <point x="731" y="704"/>
      <point x="702.995" y="771" type="curve" smooth="yes"/>
      <point x="686" y="813"/>
      <point x="163" y="797"/>
      <point x="116.995" y="765" type="curve" smooth="yes"/>
      <point x="-35" y="658"/>
      <point x="399" y="725"/>
      <point x="399" y="593" type="curve" smooth="yes"/>
      <point x="399" y="379"/>
      <point x="-3" y="75"/>
      <point x="65.9945" y="-9" type="curve" smooth="yes"/>
      <point x="139" y="-98"/>
      <point x="715" y="-28"/>
    </contour>
  </outline>
</glyph>
<glyph name="beatingHeart" format="2">
  <advance width="1163"/>
  <unicode hex="1F493"/>
  <outline>
    <contour>
      <point x="880" y="395" type="curve" smooth="yes"/>
      <point x="880" y="465"/>
      <point x="771" y="505"/>
      <point x="701" y="483" type="curve" smooth="yes"/>
      <point x="652" y="468"/>
      <point x="661" y="405"/>
      <point x="610" y="405" type="curve" smooth="yes"/>
      <point x="562" y="405"/>
      <point x="556" y="473"/>
      <point x="516" y="486" type="curve" smooth="yes"/>
      <point x="437" y="510"/>
      <point x="331" y="463"/>
      <point x="331" y="387" type="curve" smooth="yes"/>
      <point x="331" y="275"/>
      <point x="510" y="116"/>
      <point x="613" y="42" type="curve" smooth="yes"/>
      <point x="636" y="28"/>
      <point x="880" y="282"/>
    </contour>
  </outline>
</glyph>
